<?xml version="1.0" encoding="UTF-8"?>
<!DOCTYPE svg PUBLIC "-//W3C//DTD SVG 1.1//EN" "http://www.w3.org/Graphics/SVG/1.1/DTD/svg11.dtd">
<!-- Creator: CorelDRAW 2020 (64 Bit) -->
<svg xmlns="http://www.w3.org/2000/svg" xml:space="preserve" width="36.5803mm" height="40.5068mm" version="1.1" style="shape-rendering:geometricPrecision; text-rendering:geometricPrecision; image-rendering:optimizeQuality; fill-rule:evenodd; clip-rule:evenodd"
viewBox="0 0 1510.66 1672.82"
 xmlns:xlink="http://www.w3.org/1999/xlink"
 xmlns:xodm="http://www.corel.com/coreldraw/odm/2003">
 <defs>
  <style type="text/css">
   <![CDATA[
    .fil2 {fill:#51A8B1}
    .fil0 {fill:#A8CF45}
    .fil1 {fill:#F58634}
   ]]>
  </style>
 </defs>
 <g id="Camada_x0020_1">
  <metadata id="CorelCorpID_0Corel-Layer"/>
  <path class="fil0" d="M192.13 755.66c32.93,22.49 81.41,53.46 126.86,88.21 75.37,57.61 158.03,145.83 177.97,240.79 34.65,165.03 -43.91,416.27 -44.71,494.67 -2.27,222.15 130.74,-16.3 152.25,-55.03 26.1,-47 45.77,-78.56 68.03,-121.34 103.59,-199.08 153.53,-12.64 219.46,101.61 49.66,85.14 59.58,107.77 95.84,154.48 18.33,23.61 49.17,9.68 52.59,-10.73 32.46,-193.66 -109.12,-509.97 21.01,-686.4 17.33,-23.5 0.86,-12.08 25.95,-24.8 44.77,-50.49 58.06,-66.84 110.15,-101.93 41.7,-28.1 95.03,-72.5 130.81,-91.91 22.27,-22.99 19.37,-74.48 -14.57,-77.39 -11.18,0.42 -21.47,0.38 -30.71,2.17 -150.73,29.16 -291.25,123.72 -516.41,144.54 -96.45,8.91 -291.3,-37.86 -356.02,-86.16 -60.76,-25.57 -125.77,-56.91 -203.94,-63.39 -44.29,20.7 -47.56,64.98 -14.57,92.63z"/>
  <path class="fil1" d="M206.7 663.04c78.17,6.48 143.17,37.82 203.94,63.39 0,-254 28.95,-351.62 201.64,-490.81 20.62,-16.62 42.92,-30.87 67.73,-48.81 21.59,-15.61 39.45,-31.34 46.27,-40.44 8.95,-11.94 20.23,-43.58 -15.43,-37.28 -107.2,18.93 -390.63,149.92 -487.73,188.95 -178.59,71.79 -237.92,193.63 -122.8,293.88 45.82,39.89 68.26,32.89 106.38,71.13z"/>
  <path class="fil2" d="M1100.38 725.77c84.45,-23.61 116.49,-52.44 213.4,-59.89 30.95,-53.05 55.25,-40.75 102.64,-77.73 110.87,-86.49 64.58,-208.59 -123.32,-285.88 -95.65,-39.34 -359.43,-159.79 -478.8,-189.04 -39.5,-9.68 -53,-0.48 -23.3,30.17 29.91,30.85 62.51,55.55 98.34,81.92 48.22,35.48 83.64,68.23 118.88,114.19 156.48,204.12 77.96,346.49 92.15,386.25z"/>
  <path class="fil2" d="M1328.34 743.28c-35.78,19.41 -89.12,63.81 -130.81,91.91 -52.08,35.1 -65.38,51.44 -110.15,101.93 4.2,21.77 -8.29,169.25 -9.69,239.59 -0.51,25.63 2.71,36.73 8.29,38.9 10.24,4 28.44,-22.08 46.03,-43.32 40.14,-48.49 82.72,-128.19 109.83,-184.74 27.21,-56.74 60.69,-114.83 103.62,-9.12 9.96,24.52 20.12,58.87 39.07,106.44 29.9,75.06 38.52,122.62 63.68,149.68 29.15,31.36 42.17,29.38 50.24,-8.48 24.39,-114.4 4.69,-396.18 4.69,-507.45 -44.77,10.43 -125.12,29.61 -174.8,24.66z"/>
  <path class="fil1" d="M425.98 947.05c-16.69,-27.64 -79.72,-82.34 -106.98,-103.18 -44.05,-33.68 -90.95,-63.81 -123.78,-86.1l-1.53 -1.04 -1.56 -1.06c-64.03,-15.23 -117.35,-23.66 -174.8,-37.05 0,117.94 -38.98,457.74 0,538.97 32.69,-8.73 38.73,-1.73 60.61,-45.62 18.46,-37.01 56.21,-126.59 83.62,-198.91 34.88,-92.03 52.98,-146.08 122.64,-8.43 32.98,65.15 75.17,127.34 105.57,189.46 16.33,33.38 35.67,42.07 38.23,-6.15 4.81,-90.3 -4.56,-118.97 -2.02,-240.89z"/>
  <path class="fil0" d="M600 529.25c0,259.49 305.9,203.69 305.9,14.57 0,-197.34 -305.9,-203.93 -305.9,-14.57z"/>
  <path class="fil1" d="M279.53 135.95c0,-186.39 -218.6,-177.73 -202.72,5.17 12.44,143.33 202.72,163.93 202.72,-5.17z"/>
  <path class="fil2" d="M1335.9 233.88c122.9,-3.9 133.79,-233.74 7.29,-230.14 -134.17,3.82 -149.57,234.63 -7.29,230.14z"/>
 </g>
</svg>
